<?xml version="1.0" standalone="no"?>
<!DOCTYPE svg PUBLIC "-//W3C//DTD SVG 20010904//EN"
 "http://www.w3.org/TR/2001/REC-SVG-20010904/DTD/svg10.dtd">
<svg version="1.0" xmlns="http://www.w3.org/2000/svg"
 width="2501.000000pt" height="2501.000000pt" viewBox="0 0 2501.000000 2501.000000"
 preserveAspectRatio="xMidYMid meet">
<metadata>
Created by potrace 1.14, written by Peter Selinger 2001-2017
</metadata>
<g transform="translate(0.000000,2501.000000) scale(0.100000,-0.100000)"
fill="#000000" stroke="none">
<path d="M9718 23985 c-2 -1 -36 -5 -76 -9 -90 -7 -183 -28 -282 -62 -65 -23
-496 -236 -855 -424 -60 -32 -231 -119 -380 -195 -148 -76 -346 -177 -440
-225 -93 -48 -278 -143 -410 -210 -132 -68 -328 -168 -435 -223 -107 -55 -301
-154 -430 -220 -129 -65 -311 -159 -405 -207 -93 -48 -291 -149 -440 -225
-148 -76 -346 -177 -440 -225 -170 -87 -399 -204 -825 -422 -563 -288 -938
-481 -1255 -643 -110 -56 -308 -158 -440 -225 -379 -194 -613 -313 -855 -437
-224 -115 -408 -209 -864 -443 -227 -116 -334 -177 -364 -207 -7 -7 -18 -13
-22 -13 -12 0 -230 -217 -230 -229 0 -4 -9 -19 -21 -32 -69 -80 -168 -293
-204 -441 -32 -131 -38 -190 -37 -323 1 -244 44 -383 229 -745 172 -336 339
-664 461 -900 52 -102 144 -282 205 -400 60 -118 159 -312 219 -430 61 -118
162 -316 226 -440 63 -124 154 -301 202 -395 48 -93 149 -291 225 -440 76
-148 175 -342 220 -430 45 -88 142 -277 215 -420 73 -143 172 -336 220 -430
48 -93 143 -278 210 -410 68 -132 166 -325 220 -430 54 -104 153 -298 220
-430 67 -132 166 -325 220 -430 134 -261 284 -554 435 -850 70 -137 165 -322
210 -410 45 -88 142 -277 215 -420 127 -249 223 -436 425 -830 51 -99 150
-292 220 -430 146 -287 305 -597 445 -870 54 -104 150 -293 215 -420 129 -252
268 -523 422 -825 55 -107 158 -307 228 -445 70 -137 169 -331 220 -430 51
-99 154 -301 230 -450 76 -148 174 -340 218 -425 44 -85 131 -256 194 -380 64
-124 164 -319 223 -435 164 -320 464 -905 648 -1265 139 -272 307 -600 323
-632 7 -13 16 -30 20 -38 51 -102 95 -177 135 -235 60 -87 207 -236 294 -297
174 -123 411 -214 610 -233 76 -7 227 -7 275 0 217 32 302 62 590 210 110 56
313 160 450 230 138 70 331 169 430 220 279 144 701 359 910 464 105 53 192
98 195 101 3 3 107 57 232 120 l227 115 113 -29 c62 -16 115 -32 118 -35 3 -3
14 -7 25 -8 11 -1 79 -17 150 -36 72 -19 193 -51 270 -71 77 -20 151 -41 165
-47 14 -6 36 -13 50 -14 28 -4 216 -53 240 -62 8 -3 22 -7 30 -9 19 -4 109
-27 132 -34 11 -3 127 -34 263 -70 66 -18 131 -34 144 -37 14 -2 28 -6 33 -9
4 -3 60 -18 125 -35 65 -17 152 -39 193 -50 173 -47 256 -70 270 -73 8 -3 76
-21 150 -41 74 -20 142 -38 150 -40 16 -3 168 -44 290 -77 41 -11 82 -21 90
-24 8 -2 58 -15 110 -29 52 -15 102 -28 110 -30 8 -1 76 -19 150 -39 74 -21
142 -39 150 -41 8 -2 51 -13 95 -25 44 -12 123 -33 175 -46 52 -14 119 -32
148 -40 28 -8 76 -20 105 -28 28 -8 97 -26 152 -41 55 -14 133 -35 173 -46 40
-11 81 -22 90 -24 9 -3 60 -16 112 -30 52 -14 102 -27 110 -29 43 -11 224 -60
288 -77 40 -11 81 -22 90 -24 9 -2 44 -12 77 -21 33 -9 67 -18 75 -20 15 -3
160 -42 315 -84 286 -78 564 -151 589 -156 16 -2 33 -7 37 -10 11 -7 150 -43
213 -55 558 -111 1132 167 1386 671 36 71 84 194 95 243 5 23 40 156 95 357
17 63 32 122 34 130 5 17 -4 -14 186 695 77 292 155 580 171 640 17 61 32 118
34 128 2 10 7 27 10 37 3 10 8 27 10 37 2 10 16 61 30 113 15 52 28 102 30
110 3 15 170 642 264 990 27 102 63 237 80 300 17 63 49 183 71 265 22 83 58
218 80 300 22 83 49 184 60 225 11 41 36 136 56 210 35 132 80 300 88 330 3 8
21 76 41 150 20 74 38 142 40 150 1 8 8 35 15 60 7 25 14 52 15 60 2 8 14 49
25 90 12 41 23 82 25 90 2 8 8 35 15 60 7 25 14 52 16 60 1 8 24 92 49 185 26
94 57 211 70 260 13 50 83 311 155 580 72 270 143 533 157 585 13 52 34 129
45 170 36 137 39 145 43 163 2 10 7 27 10 37 3 10 8 27 10 37 2 10 54 205 115
433 62 228 114 423 116 432 5 23 5 24 54 203 23 83 43 161 46 175 2 14 9 36
14 50 8 21 22 73 46 170 10 43 114 431 124 464 6 21 13 48 16 60 2 11 15 62
29 111 14 50 57 209 96 355 38 146 76 288 84 315 7 28 25 97 40 155 15 58 38
143 51 189 13 46 26 94 28 108 3 13 12 50 21 81 10 31 19 64 21 72 2 8 17 67
34 130 17 63 33 122 35 130 4 15 86 321 127 470 11 41 21 83 23 92 2 9 13 50
24 90 11 40 29 107 40 148 11 41 42 158 69 260 62 231 65 243 68 255 1 6 12
46 24 90 12 44 39 145 60 225 72 270 108 404 160 595 28 105 53 199 56 210 2
11 20 79 39 150 20 72 38 139 40 150 3 11 18 70 35 130 17 61 32 118 35 127 2
9 15 61 30 115 15 54 28 107 30 117 3 10 9 33 15 51 6 18 12 41 14 51 2 10 23
89 46 174 74 279 212 795 216 810 1 8 15 58 29 110 15 52 28 102 30 110 2 8
22 83 44 165 23 83 43 159 46 170 2 11 20 79 40 150 19 72 37 139 39 150 2 11
31 119 64 240 33 121 77 283 97 360 20 77 40 154 45 170 9 30 15 63 29 165 9
62 7 249 -4 325 -42 301 -205 593 -445 796 -155 131 -311 205 -585 279 -105
28 -223 60 -262 71 -40 10 -108 28 -150 40 -43 11 -134 36 -203 54 -69 18
-152 41 -185 50 -33 9 -68 18 -78 20 -10 2 -27 7 -37 10 -10 3 -27 8 -37 10
-10 2 -112 30 -228 61 -212 57 -497 133 -525 139 -8 2 -134 36 -280 75 -473
128 -1684 452 -1720 460 -40 10 -291 77 -455 121 -97 27 -190 52 -235 63 -8 2
-76 20 -150 40 -74 21 -142 39 -150 41 -8 1 -69 18 -135 35 -193 52 -339 91
-355 95 -8 1 -35 9 -60 16 -25 7 -49 13 -55 15 -5 1 -37 9 -70 19 -33 9 -76
20 -95 25 -19 4 -78 19 -130 34 -52 14 -164 44 -249 67 -85 22 -158 42 -162
45 -4 2 -27 8 -51 13 -24 5 -92 23 -153 39 -60 17 -153 42 -205 55 -52 14
-131 35 -175 47 -44 12 -111 30 -150 40 -38 10 -119 32 -180 48 -152 41 -347
93 -365 97 -8 3 -67 18 -130 35 -63 17 -205 55 -315 85 -110 29 -245 66 -300
80 -55 14 -134 35 -175 46 -41 12 -199 54 -350 94 -151 40 -311 83 -355 95
-176 47 -312 81 -350 85 -22 3 -51 7 -65 10 -32 7 -232 7 -262 1 -13 -3 -41
-7 -63 -10 -137 -16 -311 -78 -448 -158 -190 -111 -348 -267 -456 -453 -84
-144 -99 -184 -171 -452 -23 -84 -43 -160 -45 -170 -5 -21 -96 -362 -155 -583
-57 -208 -100 -372 -105 -390 -2 -8 -27 -100 -55 -205 -28 -104 -67 -248 -85
-320 -42 -157 -40 -150 -56 -205 -7 -25 -13 -49 -15 -55 -1 -5 -14 -55 -29
-110 -15 -55 -30 -112 -32 -128 -3 -15 -8 -29 -12 -31 -11 -7 -93 163 -85 175
4 7 3 9 -3 6 -9 -6 -32 36 -273 508 -62 121 -156 306 -210 410 -206 402 -322
629 -440 860 -68 132 -168 328 -223 435 -54 107 -153 301 -219 430 -277 542
-313 609 -366 690 -73 110 -222 259 -340 338 -51 34 -94 62 -96 62 -2 0 -37
15 -78 33 -40 19 -85 38 -99 44 -35 15 -166 51 -209 57 -19 3 -48 8 -64 11
-30 6 -223 14 -228 10z"/>
</g>
</svg>
