<svg width="84" height="94" viewBox="0 0 84 94" fill="none" xmlns="http://www.w3.org/2000/svg">
    <path d="M.965 27.694v38.257c0 2.93 1.56 5.635 4.088 7.096l33.05 19.129a8.17 8.17 0 0 0 8.176 0L79.33 73.047a8.203 8.203 0 0 0 4.088-7.096V27.694c0-2.93-1.56-5.634-4.088-7.095L46.28 1.47a8.17 8.17 0 0 0-8.176 0L5.053 20.6a8.195 8.195 0 0 0-4.088 7.095z" fill="#F58220" />
    <path d="M42.192 74.14c15.051 0 27.253-12.23 27.253-27.317S57.243 19.506 42.192 19.506s-27.253 12.23-27.253 27.317S27.141 74.14 42.192 74.14z" fill="#273338" />
    <path d="M45.795 49.514H38.13v7.19h7.515c2.405 0 4-1.338 4-3.666.006-2.152-1.67-3.524-3.85-3.524zm-.347-12.58H38.13v7.048h7.031c2.249 0 3.952-1.455 3.952-3.667 0-2.001-1.649-3.38-3.665-3.38zm11.473 2.452c0 2.527-1.042 4.514-2.637 5.702-.947.704-1.853 1.1-2.732 1.202v.198c2.514.212 4.838 2.042 5.635 4.084a9.483 9.483 0 0 1 .66 3.449c0 6.03-4.469 9.199-10.791 9.199H30.077V30.44h16.938c5.696-.007 9.906 3.373 9.906 8.946z" fill="#fff" />
</svg>